<svg width="143" height="38" viewBox="0 0 143 38" fill="none" xmlns="http://www.w3.org/2000/svg">
<path d="M10.032 27C9.04 27 8.168 26.776 7.416 26.328C6.664 25.864 6.08 25.256 5.664 24.504C5.248 23.736 5.04 22.896 5.04 21.984V13.224H0.36V10.2H13.152V13.224H8.472V22.392C8.472 22.824 8.624 23.2 8.928 23.52C9.232 23.824 9.6 23.976 10.032 23.976H11.232V27H10.032ZM15.2034 27V10.2H18.6354V16.944H25.9794V10.2H29.4114V27H25.9794V19.968H18.6354V27H15.2034ZM37.0776 27C36.1496 27 35.3016 26.776 34.5336 26.328C33.7816 25.88 33.1816 25.28 32.7336 24.528C32.2856 23.76 32.0616 22.912 32.0616 21.984C32.0616 21.312 32.2056 20.68 32.4936 20.088C32.7816 19.496 33.1736 18.976 33.6696 18.528C33.1736 18.08 32.7816 17.56 32.4936 16.968C32.2056 16.376 32.0616 15.752 32.0616 15.096C32.0616 14.184 32.2776 13.36 32.7096 12.624C33.1576 11.888 33.7496 11.304 34.4856 10.872C35.2376 10.424 36.0616 10.2 36.9576 10.2H43.8696V13.224H37.3416C37.0056 13.224 36.6936 13.312 36.4056 13.488C36.1336 13.648 35.9096 13.872 35.7336 14.16C35.5736 14.432 35.4936 14.744 35.4936 15.096C35.4936 15.432 35.5736 15.744 35.7336 16.032C35.9096 16.304 36.1336 16.528 36.4056 16.704C36.6936 16.864 37.0056 16.944 37.3416 16.944H43.0536V19.968H37.4856C37.1176 19.968 36.7816 20.064 36.4776 20.256C36.1736 20.432 35.9336 20.672 35.7576 20.976C35.5816 21.28 35.4936 21.616 35.4936 21.984C35.4936 22.352 35.5816 22.688 35.7576 22.992C35.9336 23.296 36.1736 23.536 36.4776 23.712C36.7816 23.888 37.1176 23.976 37.4856 23.976H43.8696V27H37.0776ZM36.9096 8.832L38.9256 5.88H42.0216L40.0056 8.832H36.9096ZM59.7898 27C58.7978 27 57.9258 26.776 57.1738 26.328C56.4218 25.864 55.8378 25.256 55.4218 24.504C55.0058 23.736 54.7978 22.896 54.7978 21.984V13.224H50.1178V10.2H62.9098V13.224H58.2298V22.392C58.2298 22.824 58.3818 23.2 58.6858 23.52C58.9898 23.824 59.3578 23.976 59.7898 23.976H60.9898V27H59.7898ZM64.5293 27V23.976H67.5533V13.224H64.5293V10.2H74.0093V13.224H70.9853V23.976H74.0093V27H64.5293ZM76.9378 27V10.2H83.9698C85.0738 10.2 86.0738 10.456 86.9698 10.968C87.8818 11.464 88.6018 12.16 89.1298 13.056C89.6738 13.952 89.9458 14.992 89.9458 16.176C89.9458 17.344 89.6738 18.384 89.1298 19.296C88.6018 20.192 87.8818 20.896 86.9698 21.408C86.0738 21.904 85.0738 22.152 83.9698 22.152H80.3698V27H76.9378ZM80.3698 19.128H83.5618C84.1058 19.128 84.6018 19.016 85.0498 18.792C85.4978 18.552 85.8498 18.216 86.1058 17.784C86.3778 17.336 86.5138 16.8 86.5138 16.176C86.5138 15.552 86.3778 15.024 86.1058 14.592C85.8498 14.144 85.4978 13.808 85.0498 13.584C84.6018 13.344 84.1058 13.224 83.5618 13.224H80.3698V19.128ZM105.493 27C104.501 27 103.629 26.776 102.877 26.328C102.125 25.864 101.541 25.256 101.125 24.504C100.709 23.736 100.501 22.896 100.501 21.984V13.224H95.8209V10.2H108.613V13.224H103.933V22.392C103.933 22.824 104.085 23.2 104.389 23.52C104.693 23.824 105.061 23.976 105.493 23.976H106.693V27H105.493ZM117.786 27.312C116.442 27.312 115.226 27.088 114.138 26.64C113.066 26.176 112.146 25.544 111.378 24.744C110.61 23.944 110.018 23.016 109.602 21.96C109.186 20.904 108.978 19.776 108.978 18.576C108.978 17.376 109.186 16.256 109.602 15.216C110.018 14.16 110.61 13.232 111.378 12.432C112.146 11.632 113.066 11.008 114.138 10.56C115.226 10.112 116.442 9.888 117.786 9.888C119.13 9.888 120.338 10.112 121.41 10.56C122.498 11.008 123.426 11.632 124.194 12.432C124.962 13.232 125.554 14.16 125.97 15.216C126.386 16.256 126.594 17.376 126.594 18.576C126.594 19.776 126.386 20.904 125.97 21.96C125.554 23.016 124.962 23.944 124.194 24.744C123.426 25.544 122.498 26.176 121.41 26.64C120.338 27.088 119.13 27.312 117.786 27.312ZM117.786 24.264C118.554 24.264 119.266 24.128 119.922 23.856C120.578 23.568 121.146 23.168 121.626 22.656C122.122 22.128 122.498 21.52 122.754 20.832C123.026 20.144 123.162 19.392 123.162 18.576C123.162 17.76 123.026 17.008 122.754 16.32C122.498 15.632 122.122 15.032 121.626 14.52C121.146 14.008 120.578 13.616 119.922 13.344C119.266 13.056 118.554 12.912 117.786 12.912C117.018 12.912 116.306 13.056 115.65 13.344C114.994 13.616 114.418 14.008 113.922 14.52C113.442 15.032 113.066 15.632 112.794 16.32C112.538 17.008 112.41 17.76 112.41 18.576C112.41 19.392 112.538 20.144 112.794 20.832C113.066 21.52 113.442 22.128 113.922 22.656C114.418 23.168 114.994 23.568 115.65 23.856C116.306 24.128 117.018 24.264 117.786 24.264ZM128.993 27V10.2H136.025C137.129 10.2 138.129 10.456 139.025 10.968C139.937 11.464 140.657 12.16 141.185 13.056C141.729 13.952 142.001 14.992 142.001 16.176C142.001 17.344 141.729 18.384 141.185 19.296C140.657 20.192 139.937 20.896 139.025 21.408C138.129 21.904 137.129 22.152 136.025 22.152H132.425V27H128.993ZM132.425 19.128H135.617C136.161 19.128 136.657 19.016 137.105 18.792C137.553 18.552 137.905 18.216 138.161 17.784C138.433 17.336 138.569 16.8 138.569 16.176C138.569 15.552 138.433 15.024 138.161 14.592C137.905 14.144 137.553 13.808 137.105 13.584C136.657 13.344 136.161 13.224 135.617 13.224H132.425V19.128Z" fill="#231F20"/>
<circle cx="117.5" cy="18.5" r="7.5" fill="white" stroke="#231F20" stroke-width="2"/>
<path d="M117.993 12.6207C117.636 14.107 117.313 15.5905 117.118 17.0658C117.215 17.0427 117.315 17.0324 117.421 17.0324C117.595 17.0324 117.764 17.0632 117.923 17.1222C118.034 15.6572 118.203 14.1771 118.578 12.6772L117.993 12.6207ZM116.461 12.8421L115.553 13.0559C115.643 13.4761 115.75 13.8954 115.873 14.3141L116.861 15.6752C116.902 15.434 116.948 15.1954 116.995 14.9542C116.789 14.2597 116.6 13.557 116.461 12.8421ZM119.809 13.0802C119.324 13.715 118.942 14.3787 118.598 15.0569C118.547 15.4417 118.503 15.824 118.465 16.2114C118.637 16.06 118.806 15.9087 118.973 15.7573C119.306 14.9363 119.714 14.1173 120.34 13.3168L119.809 13.0802ZM114.706 13.5005L114.226 13.8859L116.515 17.3583C116.548 17.3301 116.582 17.3044 116.618 17.2762C116.659 16.958 116.702 16.6399 116.751 16.3217L114.706 13.5005ZM121.372 14.0811C120.456 15.0517 119.447 15.9728 118.406 16.8785L118.367 17.3916C118.478 17.4891 118.575 17.6046 118.652 17.7329C119.768 16.6809 120.859 15.6367 121.764 14.554L121.372 14.0811ZM113.414 14.9388L112.877 15.7034C113.399 16.1447 114.008 16.5347 114.657 16.9042C115.065 17.0299 115.473 17.1453 115.884 17.2531L115.212 16.2294C114.565 15.8471 113.947 15.4366 113.414 14.9388ZM122.367 15.3057L120.481 16.6245C120.338 16.7707 120.189 16.9119 120.043 17.0581C120.369 17.0504 120.694 17.035 121.023 17.0094C121.554 16.6117 122.113 16.2242 122.737 15.8574L122.367 15.3057ZM112.332 16.5629L112.182 17.1556C113.331 17.6764 114.534 18.0895 115.753 18.4769C115.832 18.4205 115.912 18.3666 115.991 18.3127C116.012 18.128 116.066 17.9587 116.148 17.7996C114.847 17.4686 113.567 17.0812 112.332 16.5629ZM123.142 17.1453C121.926 17.4378 120.728 17.5276 119.553 17.5251C119.314 17.7534 119.075 17.9792 118.834 18.2075L118.842 18.246C118.873 18.2665 118.901 18.2845 118.932 18.3025C120.417 18.2794 121.857 18.1049 123.273 17.8535L123.142 17.1453ZM117.421 17.4968C116.879 17.4968 116.446 17.933 116.446 18.4769C116.446 19.0209 116.879 19.4545 117.421 19.4545C117.962 19.4545 118.393 19.0209 118.393 18.4769C118.393 17.933 117.962 17.4968 117.421 17.4968ZM111.835 17.7662L111.727 18.441L113.256 18.6514C113.59 18.595 113.921 18.5359 114.247 18.4718C113.703 18.2819 113.163 18.0818 112.631 17.8586L111.835 17.7662ZM121.159 18.6309C120.676 18.6822 120.192 18.7207 119.704 18.7463C120.194 19.0055 120.707 19.2466 121.236 19.4801L122.975 19.8598L123.055 18.967L121.159 18.6309ZM115.135 18.7694C114.101 18.9798 113.048 19.1825 111.885 19.3159L111.962 20.1959L113.687 19.8162C114.221 19.4904 114.747 19.1543 115.26 18.8105C115.219 18.7976 115.176 18.7822 115.135 18.7694ZM118.829 18.7797C118.762 19.0722 118.611 19.3339 118.401 19.5314C119.763 20.2857 121.392 20.8117 122.993 21.3839L123.214 20.7989C121.698 20.1934 120.174 19.5879 118.829 18.7797ZM116.03 18.8464C114.806 19.6854 113.541 20.4859 112.188 21.2017L112.527 21.7123C113.772 21.1273 114.952 20.4859 116.079 19.7931L116.343 19.4314C116.197 19.2646 116.086 19.067 116.03 18.8464ZM117.895 19.8367C117.746 19.8932 117.585 19.9214 117.421 19.9214C117.303 19.9214 117.19 19.906 117.084 19.8804L117.646 24.378L118.249 24.2754L117.895 19.8367ZM116.61 19.8521L113.967 23.5057L114.475 23.8521L116.751 20.9836L116.61 19.8521ZM118.38 20.0523L118.426 20.6347C119.04 21.7302 119.678 22.8155 120.402 23.8675L121.154 23.4595C120.374 22.4538 119.707 21.4275 119.075 20.3935C118.839 20.2857 118.606 20.1729 118.38 20.0523ZM119.825 20.7193C119.917 20.8707 120.014 21.0195 120.109 21.1709C120.743 21.7662 121.359 22.3947 121.911 23.1234L122.547 22.541C122.165 22.0946 121.757 21.6866 121.333 21.2915C120.828 21.1119 120.32 20.922 119.825 20.7193ZM115.391 20.7476C114.778 21.0991 114.149 21.4352 113.503 21.7585L112.82 22.387L113.459 22.9746L114.627 21.7995L115.391 20.7476ZM116.833 21.6353L116.138 22.5102L115.863 24.065L116.538 24.2626L116.9 22.1638L116.833 21.6353ZM118.514 21.7354L118.532 21.9406L119.306 24.2267L119.681 24.0727L119.447 23.2748C119.122 22.7668 118.814 22.2511 118.514 21.7354Z" fill="#231F20"/>
</svg>
