<svg width="44" height="51" viewBox="0 0 44 51" fill="none" xmlns="http://www.w3.org/2000/svg">
<path d="M42.5254 10.4146H28.249C30.7925 9.30042 32.4019 7.50532 32.4019 5.46261C32.4019 4.04454 31.1751 2.73901 29.4813 2.35635C27.4443 1.89492 24.6081 2.79528 22.7567 6.68373C22.6104 6.98761 22.7398 7.35338 23.0493 7.49969C23.3532 7.646 23.719 7.51657 23.8653 7.20707C25.8067 3.12729 28.4459 3.37489 29.2112 3.54371C30.331 3.79694 31.1751 4.61852 31.1751 5.45698C31.1751 8.00052 27.4893 10.1558 22.7905 10.364C22.723 10.364 22.6554 10.3865 22.5935 10.409H22.3403C22.0308 9.00217 21.6481 7.7079 21.1923 6.56556C19.5829 2.57019 16.9494 0.178596 13.9613 0.00977738C11.9355 -0.108396 10.0166 0.85387 9.1781 2.39574C9.0149 2.69399 9.12745 3.06539 9.4257 3.22295C9.72394 3.38615 10.0953 3.2736 10.2585 2.97535C10.8663 1.85553 12.3631 1.13523 13.8938 1.22527C15.3625 1.30968 18.1142 2.17628 20.0613 7.01574C20.4664 8.02865 20.8097 9.16536 21.091 10.4034H20.9616C20.8997 10.3809 20.8378 10.364 20.7703 10.3583C15.9252 10.122 11.7723 8.22561 10.433 5.64831C10.2754 5.35007 9.90964 5.23189 9.60577 5.38383C9.30752 5.54139 9.18935 5.90717 9.34129 6.21104C10.2642 7.98926 12.2056 9.45236 14.7547 10.4034H1.24926C0.557101 10.4034 0 10.9661 0 11.6526V16.1207C0 16.8072 0.562728 17.3699 1.24926 17.3699H2.67296V47.2227C2.67296 47.5603 2.94869 47.836 3.28633 47.836H5.53724C5.70606 47.836 5.85237 47.7685 5.96492 47.6616C6.07746 47.549 6.15062 47.3971 6.15062 47.2227C6.15062 47.0482 6.07746 46.8963 5.96492 46.7837C5.85237 46.6768 5.70606 46.6093 5.53724 46.6093H3.89971V17.3699H18.9245V46.6093H10.9676C10.6299 46.6093 10.3542 46.885 10.3542 47.2227C10.3542 47.5603 10.6299 47.836 10.9676 47.836H39.8299C40.1675 47.836 40.4433 47.5603 40.4433 47.2227V42.8109C40.4433 42.4732 40.1675 42.1975 39.8299 42.1975C39.4923 42.1975 39.2165 42.4732 39.2165 42.8109V46.6093H24.9457V17.3699H27.0841C27.4217 17.3699 27.6975 17.0942 27.6975 16.7566C27.6975 16.4189 27.4217 16.1432 27.0841 16.1432H11.6991L1.23237 16.1151L1.26051 11.6245H38.44L42.5591 11.6526L42.531 16.1432H31.3046C31.1132 16.1432 30.95 16.2332 30.8375 16.3627C30.7475 16.4696 30.6912 16.6046 30.6912 16.7509C30.6912 17.0886 30.9669 17.3643 31.3046 17.3643H39.2165V38.8324C39.2165 39.17 39.4923 39.4458 39.8299 39.4458C40.1675 39.4458 40.4433 39.17 40.4433 38.8324V17.3643H42.5366C43.2288 17.3643 43.7859 16.8016 43.7859 16.1151V11.647C43.7859 10.9605 43.2231 10.3977 42.5366 10.3977L42.5254 10.4146ZM20.1457 17.3812H23.7134V46.6205H20.1457V17.3812Z" fill="#4A4A4A"/>
<path d="M39.8243 39.4626C39.4867 39.4626 39.2109 39.1868 39.2109 38.8492V19.8909H24.9402V46.6148H39.2109V42.8164C39.2109 42.4788 39.4867 42.203 39.8243 42.203C40.162 42.203 40.4377 42.4788 40.4377 42.8164V47.2282C40.4377 47.5658 40.162 47.8416 39.8243 47.8416H10.962C10.6244 47.8416 10.3486 47.5658 10.3486 47.2282C10.3486 46.8906 10.6244 46.6148 10.962 46.6148H18.919V19.8909H5.96497V46.7893C6.07751 46.9018 6.15067 47.0538 6.15067 47.2282C6.15067 47.4026 6.07751 47.5546 5.96497 47.6671V49.0627C5.96497 49.7774 6.54458 50.357 7.25924 50.357H41.203C41.9177 50.357 42.4973 49.7774 42.4973 49.0627V19.8965H40.4321V38.8548C40.4321 39.1924 40.1563 39.4682 39.8187 39.4682L39.8243 39.4626Z" fill="#C8AE7D"/>
</svg>
