<svg width="44" height="57" viewBox="0 0 44 57" fill="none" xmlns="http://www.w3.org/2000/svg">
<path d="M38.7383 52.7446C39.1379 52.3507 39.363 51.8273 39.363 51.2646L39.5768 25.9531C39.5768 25.3453 39.4136 24.7545 39.0985 24.2424L32.886 14.2202L20.4778 14.1133L18.9022 16.5611C19.7913 16.7637 20.6297 17.0001 21.3838 17.2814C23.9048 18.2268 25.2891 19.5492 25.2779 21.0011C25.2779 21.0799 25.2666 21.153 25.261 21.2318C25.8462 20.9504 26.2627 20.3539 26.2683 19.6562C26.2739 18.6883 25.4917 17.8892 24.5238 17.8836C24.1862 17.8836 23.9161 17.6022 23.9161 17.2646C23.9161 16.9269 24.2087 16.6681 24.5351 16.6568C25.3342 16.6624 26.077 16.9776 26.6341 17.5459C27.1912 18.1143 27.495 18.8683 27.4894 19.6618C27.4781 21.2993 26.1389 22.6217 24.5069 22.6217H24.4788C23.4265 22.6105 22.4755 22.0646 21.9353 21.1586C21.7608 20.866 21.8621 20.4946 22.1491 20.3202C22.4417 20.1514 22.8131 20.247 22.9876 20.534C23.2183 20.9223 23.5728 21.1924 23.9892 21.3218C24.023 21.2093 24.0455 21.1024 24.0511 20.9898C24.0568 20.1176 22.8975 19.1553 20.9505 18.4238C20.1289 18.1143 19.2004 17.8554 18.1988 17.6528L14.8449 22.8637L12.5996 26.3526C12.3689 26.7128 12.2395 27.1348 12.2395 27.5681L12.0256 53.1272L37.2584 53.3411C37.8211 53.3523 38.3444 53.1329 38.744 52.7389L38.7383 52.7446ZM18.1988 34.3602C17.9005 33.8538 17.7486 33.3023 17.7486 32.7058C17.7486 32.1093 17.8949 31.5635 18.1988 31.0627C18.497 30.5618 18.8965 30.1623 19.4086 29.864C19.9151 29.5658 20.4722 29.4139 21.0856 29.4139C21.6989 29.4139 22.2279 29.5658 22.7287 29.864C23.2296 30.1623 23.6291 30.5618 23.9273 31.0627C24.2256 31.5635 24.3775 32.1093 24.3775 32.7058C24.3775 33.3023 24.2312 33.8538 23.9386 34.3602C23.646 34.8667 23.2464 35.2662 22.74 35.5589C22.2335 35.8515 21.682 35.9978 21.0856 35.9978C20.4891 35.9978 19.9151 35.8515 19.4086 35.5589C18.9022 35.2662 18.497 34.8667 18.1988 34.3602ZM21.8284 44.1742H20.2696C20.1739 44.1742 20.112 44.1461 20.0839 44.0898C20.0558 44.0335 20.0614 43.966 20.1064 43.8816L27.9508 29.7684C28.0184 29.6558 28.1253 29.5996 28.2603 29.5996H29.8022C29.8979 29.5996 29.9598 29.6277 29.9879 29.684C30.0161 29.7402 30.0104 29.8078 29.9654 29.8922L22.1379 44.0054C22.0703 44.1179 21.9634 44.1742 21.8284 44.1742ZM32.0588 42.7055C31.7605 43.212 31.3553 43.6171 30.8489 43.9154C30.3424 44.2136 29.791 44.3655 29.1945 44.3655C28.598 44.3655 28.0465 44.2136 27.54 43.9154C27.0336 43.6171 26.6284 43.2176 26.3302 42.7055C26.0319 42.199 25.88 41.6476 25.88 41.0511C25.88 40.4546 26.0263 39.9087 26.3302 39.4079C26.6284 38.9071 27.028 38.5132 27.54 38.2206C28.0465 37.9279 28.598 37.7816 29.1945 37.7816C29.791 37.7816 30.3424 37.9279 30.8489 38.2206C31.3553 38.5132 31.7549 38.9071 32.0588 39.4079C32.357 39.9087 32.5089 40.4546 32.5089 41.0511C32.5089 41.6476 32.357 42.199 32.0588 42.7055Z" fill="#C8AE7D"/>
<path d="M22.1714 33.8312C22.4696 33.5273 22.6216 33.1503 22.6216 32.7057C22.6216 32.2612 22.4696 31.9067 22.1714 31.6028C21.8731 31.2989 21.5074 31.147 21.0797 31.147C20.652 31.147 20.2581 31.2989 19.9542 31.6028C19.6504 31.9067 19.4984 32.2781 19.4984 32.7057C19.4984 33.1334 19.6504 33.5273 19.9542 33.8312C20.2581 34.1351 20.6351 34.287 21.0797 34.287C21.5242 34.287 21.8731 34.1351 22.1714 33.8312Z" fill="#C8AE7D"/>
<path d="M43.0488 26.6171L35.8177 14.9517C35.542 14.5072 35.0637 14.2371 34.5403 14.2371H34.3321L40.1395 23.6009C40.5784 24.3099 40.8091 25.1315 40.8035 25.9699L40.5897 51.2815C40.584 52.1706 40.2295 52.9978 39.5993 53.6224C38.9746 54.2358 38.1474 54.5734 37.2696 54.5734H37.2414L12.2169 54.3652C12.6165 55.3556 13.5787 56.059 14.7098 56.0646L40.449 56.2785C41.9458 56.2897 43.167 55.0911 43.1782 53.5943L43.3921 27.8382C43.3921 27.4049 43.2795 26.9829 43.0488 26.6171Z" fill="#C8AE7D"/>
<path d="M29.2 39.4922C28.7723 39.4922 28.4009 39.6441 28.097 39.9424C27.7932 40.2406 27.6412 40.612 27.6412 41.0566C27.6412 41.5011 27.7875 41.8782 28.0914 42.182C28.3897 42.4859 28.7611 42.6378 29.2056 42.6378C29.6502 42.6378 30.0047 42.4859 30.3086 42.182C30.6124 41.8782 30.7644 41.5011 30.7644 41.0566C30.7644 40.612 30.6124 40.2575 30.3086 39.9536C30.0047 39.6498 29.6333 39.4978 29.2056 39.4978L29.2 39.4922Z" fill="#C8AE7D"/>
<path d="M18.2719 7.19723C18.3901 7.32103 18.5477 7.38293 18.7109 7.38293C18.8741 7.38293 19.0204 7.32666 19.1385 7.20848C19.3805 6.97214 19.3805 6.58386 19.1442 6.34188L16.218 3.36505C15.9816 3.12308 15.5934 3.12308 15.3514 3.35942C15.1094 3.59577 15.1094 3.98405 15.3458 4.22602L18.2719 7.20286V7.19723Z" fill="#4A4A4A"/>
<path d="M24.6251 5.16022C24.9627 5.16022 25.2328 4.89011 25.2385 4.55247L25.2722 0.619001C25.2722 0.281364 25.0021 0.00562728 24.6645 0C24.3268 0 24.0567 0.270109 24.0511 0.607746L24.0173 4.54122C24.0173 4.87885 24.2874 5.15459 24.6251 5.16022Z" fill="#4A4A4A"/>
<path d="M30.5112 7.47877C30.6688 7.47877 30.8207 7.4225 30.9389 7.30432L33.9157 4.37814C34.1577 4.14179 34.1577 3.75351 33.9214 3.51154C33.685 3.26956 33.2967 3.26956 33.0548 3.50591L30.0779 6.43209C29.836 6.66844 29.836 7.05672 30.0723 7.2987C30.1905 7.4225 30.348 7.4844 30.5112 7.4844V7.47877Z" fill="#4A4A4A"/>
<path d="M24.0455 20.9954C24.0455 21.1079 24.023 21.2148 23.9836 21.3274C23.5671 21.2036 23.2126 20.9278 22.9819 20.5395C22.8075 20.2469 22.4361 20.1513 22.1434 20.3257C21.8508 20.5002 21.7552 20.8716 21.9296 21.1642C22.4698 22.0702 23.4208 22.6216 24.4731 22.6273H24.5013C26.1332 22.6273 27.4725 21.3049 27.4837 19.6673C27.4894 18.8682 27.1855 18.1198 26.6284 17.5515C26.0713 16.9831 25.3229 16.668 24.5294 16.6623C24.203 16.6736 23.916 16.9325 23.9104 17.2701C23.9104 17.6077 24.1805 17.8835 24.5182 17.8891C25.4861 17.8947 26.2682 18.6938 26.2626 19.6617C26.257 20.3538 25.8462 20.956 25.2553 21.2373C25.261 21.1642 25.2722 21.0854 25.2722 21.0066C25.2835 19.5548 23.9048 18.2324 21.3781 17.287C20.6241 17.0056 19.7912 16.7636 18.8965 16.5667C17.0282 16.1446 14.9011 15.9083 12.6784 15.8858C9.39765 15.8576 6.29702 16.3022 3.95607 17.1407C1.41817 18.0467 0.0169768 19.3409 9.49903e-05 20.7928C-0.0167869 22.661 2.21724 24.2592 6.13383 25.1877C6.17885 25.1989 6.2295 25.2046 6.27451 25.2046C6.55025 25.2046 6.80348 25.0132 6.87101 24.7319C6.94979 24.4055 6.74721 24.0735 6.4152 23.9947C3.25266 23.2463 1.21559 21.997 1.22684 20.804C1.23247 19.9318 2.40857 18.992 4.36686 18.2943C6.57839 17.5064 9.52708 17.0844 12.6671 17.1125C14.631 17.1294 16.5162 17.3207 18.1931 17.6584C19.1948 17.861 20.1233 18.1198 20.9448 18.4293C22.8919 19.1609 24.0511 20.1175 24.0455 20.9954Z" fill="#4A4A4A"/>
<path d="M37.2696 54.5677C38.1474 54.5677 38.969 54.2301 39.5993 53.6167C40.2295 52.9921 40.584 52.1649 40.5897 51.2758L40.8035 25.9643C40.8091 25.1258 40.5784 24.3098 40.1395 23.5952L34.3321 14.2314L32.7002 11.5978C32.5877 11.4177 32.3963 11.3108 32.1825 11.3108L17.2815 11.187C17.2815 11.187 17.2815 11.187 17.2758 11.187C17.2533 11.187 17.2308 11.187 17.2083 11.1926C17.1914 11.1926 17.1689 11.1926 17.152 11.1983C17.1408 11.1983 17.1295 11.2039 17.1183 11.2095C17.0901 11.2151 17.0676 11.2264 17.0395 11.232C17.0339 11.232 17.0282 11.2377 17.017 11.2433C16.9888 11.2545 16.9607 11.2714 16.9326 11.2883C16.9213 11.2939 16.9101 11.3052 16.8988 11.3164C16.8763 11.3333 16.8594 11.3502 16.8369 11.3671C16.8257 11.3783 16.82 11.3896 16.8088 11.4008C16.7919 11.4234 16.775 11.4402 16.7581 11.4627C16.7581 11.4627 16.7581 11.4627 16.7581 11.4684L15.8915 12.8133C15.7115 13.1003 15.7902 13.4773 16.0772 13.6574C16.1785 13.7249 16.2967 13.7531 16.4092 13.7531C16.6118 13.7531 16.8088 13.6518 16.9269 13.4717L17.6135 12.4081L31.8392 12.5263L32.8859 14.2145L39.0984 24.2367C39.4192 24.7488 39.5824 25.3453 39.5767 25.9474L39.3629 51.2589C39.3629 51.8216 39.1378 52.3449 38.7383 52.7389C38.3387 53.1328 37.8154 53.3522 37.2527 53.341L12.02 53.1271H11.5135C10.9508 53.1159 10.4274 52.8964 10.0335 52.4969C9.63962 52.0973 9.42578 51.5684 9.43141 51.0113L9.64524 25.6998C9.64524 25.092 9.82532 24.5068 10.1517 23.9947L12.155 20.8772C12.3351 20.5902 12.2563 20.2132 11.9693 20.0331C11.6823 19.853 11.3053 19.9318 11.1252 20.2188L9.12191 23.3363C8.6661 24.0397 8.42412 24.8557 8.4185 25.6941L8.20466 51.0057C8.19903 51.8948 8.53667 52.7276 9.15567 53.3635C9.7803 53.9937 10.6075 54.3483 11.4966 54.3539H12.2057L37.2302 54.5677H37.2583H37.2696Z" fill="#4A4A4A"/>
</svg>
